<svg id="Capa_1" height="512" width="512" xmlns="http://www.w3.org/2000/svg"><path d="M429.419 0H82.581C55.568 0 31.583 12.969 16.516 33.022L5.719 82.581v338.255c0 45.608 36.973 82.581 82.581 82.581h341.12l49.545-7.932C499.022 480.418 512 456.437 512 429.419V82.581C512 36.973 475.027 0 429.419 0z" fill="#EB478B"/><path d="M396.387 256c0 35.59-13.244 68.088-35.072 92.832C335.59 377.993 297.943 392.43 256 392.43c-77.534 0-137.076-58.896-137.076-136.43 0-42.017 15.147-79.722 44.397-105.45 24.725-21.748 57.162-34.937 92.678-34.937 77.535 0 140.388 62.853 140.388 140.387z" fill="#EB478B"/><circle cx="256" cy="256" fill="#8633B0" r="99.097"/><circle cx="412.903" cy="99.097" fill="#fff" r="33.032"/><path d="M82.581 495.484c-36.486 0-66.065-29.578-66.065-66.065V33.022C6.191 46.808 0 64.031 0 82.581V429.42C0 475.027 36.973 512 82.581 512H429.42c18.55 0 35.759-6.191 49.545-16.516z" fill="#8633B0"/><circle cx="256" cy="256" fill="#fff" r="82.581"/><path d="M268.387 384C190.853 384 128 321.147 128 243.613c0-35.612 13.469-68.313 35.322-93.063-29.135 25.724-47.709 63.529-47.709 105.45 0 77.534 62.853 140.387 140.387 140.387 41.921 0 79.591-18.421 105.315-47.555C336.565 370.684 303.999 384 268.387 384zm158.566-265.921c-18.243 0-33.032-14.789-33.032-33.032 0-5.49 1.468-10.589 3.838-15.145-10.582 5.505-17.888 16.442-17.888 29.195 0 18.243 14.789 33.032 33.032 33.032 12.753 0 23.69-7.305 29.195-17.887-4.556 2.37-9.654 3.837-15.145 3.837z" fill="#8633B0"/></svg>