<svg width="94" height="14" fill="none" xmlns="http://www.w3.org/2000/svg"><path d="M2.647 13H.433V.203h2.214V13zm12.885 0H13.31L7.604 3.92V13H5.381V.203h2.223l5.722 9.114V.203h2.206V13zm9.317-3.296c0-.562-.2-.996-.598-1.3-.393-.305-1.105-.613-2.136-.924-1.031-.31-1.851-.656-2.46-1.037-1.167-.732-1.75-1.687-1.75-2.865 0-1.031.42-1.88 1.257-2.549C20.006.361 21.1.027 22.44.027c.891 0 1.685.164 2.382.493a3.898 3.898 0 011.644 1.406c.398.603.598 1.274.598 2.012h-2.215c0-.667-.211-1.189-.633-1.564-.416-.38-1.014-.571-1.793-.571-.727 0-1.292.155-1.696.466-.399.31-.598.744-.598 1.3 0 .47.217.862.65 1.178.434.31 1.149.615 2.145.914.996.293 1.796.63 2.4 1.01.603.376 1.045.81 1.326 1.302.282.486.422 1.057.422 1.714 0 1.066-.41 1.915-1.23 2.548-.815.627-1.922.94-3.322.94-.926 0-1.779-.17-2.558-.509-.773-.346-1.377-.82-1.81-1.424-.428-.603-.642-1.306-.642-2.11h2.223c0 .727.24 1.29.721 1.688.48.399 1.169.598 2.066.598.773 0 1.353-.155 1.74-.466.392-.316.589-.732.589-1.248zm13.42-7.708h-3.99V13h-2.206V1.996h-3.955V.203H38.27v1.793zm7.796 8.024h-4.957L40.071 13H37.76L42.594.203h1.995L49.432 13h-2.32l-1.047-2.98zm-4.333-1.792h3.71l-1.855-5.309-1.855 5.309zM50.891 13V.203h4.385c1.448 0 2.55.29 3.305.87.756.58 1.134 1.445 1.134 2.593a2.76 2.76 0 01-.475 1.582c-.316.469-.78.832-1.388 1.09.691.187 1.224.542 1.6 1.063.38.516.57 1.137.57 1.864 0 1.2-.386 2.124-1.16 2.768-.767.645-1.869.967-3.304.967H50.89zm2.223-5.774v3.999h2.47c.697 0 1.242-.173 1.635-.519.392-.346.589-.826.589-1.441 0-1.33-.68-2.01-2.04-2.04h-2.654zm0-1.635h2.18c.691 0 1.23-.155 1.617-.466.393-.316.589-.762.589-1.336 0-.633-.182-1.09-.545-1.371-.357-.281-.917-.422-1.679-.422h-2.162v3.595zM72.46 6.936c0 1.253-.217 2.355-.65 3.304-.434.944-1.055 1.67-1.864 2.18-.802.504-1.728.756-2.777.756-1.037 0-1.963-.252-2.777-.756-.809-.51-1.436-1.233-1.881-2.171-.44-.937-.662-2.019-.668-3.243v-.72c0-1.249.22-2.35.659-3.306.445-.955 1.07-1.684 1.872-2.188.809-.51 1.734-.765 2.777-.765 1.043 0 1.966.252 2.769.756.809.498 1.433 1.219 1.872 2.162.44.938.662 2.03.668 3.279v.712zm-2.224-.668c0-1.418-.27-2.505-.808-3.261-.533-.756-1.292-1.134-2.277-1.134-.96 0-1.714.378-2.258 1.134-.54.75-.815 1.813-.827 3.19v.739c0 1.406.273 2.493.818 3.26.55.768 1.312 1.152 2.285 1.152.984 0 1.74-.375 2.267-1.125.534-.75.8-1.846.8-3.287v-.668zm12.93-4.272h-3.991V13h-2.206V1.996h-3.955V.203h10.151v1.793zM91.4 9.704c0-.562-.199-.996-.597-1.3-.393-.305-1.105-.613-2.136-.924-1.031-.31-1.852-.656-2.46-1.037-1.167-.732-1.75-1.687-1.75-2.865 0-1.031.419-1.88 1.257-2.549C86.557.361 87.649.027 88.99.027c.89 0 1.685.164 2.382.493a3.898 3.898 0 011.644 1.406c.398.603.597 1.274.597 2.012H91.4c0-.667-.21-1.189-.632-1.564-.416-.38-1.014-.571-1.793-.571-.727 0-1.292.155-1.697.466-.398.31-.597.744-.597 1.3 0 .47.216.862.65 1.178.434.31 1.148.615 2.145.914.996.293 1.796.63 2.399 1.01.604.376 1.046.81 1.327 1.302.281.486.422 1.057.422 1.714 0 1.066-.41 1.915-1.23 2.548-.815.627-1.922.94-3.323.94-.925 0-1.778-.17-2.557-.509-.774-.346-1.377-.82-1.81-1.424-.429-.603-.642-1.306-.642-2.11h2.223c0 .727.24 1.29.72 1.688.481.399 1.17.598 2.066.598.774 0 1.354-.155 1.74-.466.393-.316.59-.732.59-1.248z" fill="#4754EB"/></svg>