<svg width="73" height="15" fill="none" xmlns="http://www.w3.org/2000/svg"><path d="M1.997 14H.371V4.49h1.626V14zM.24 1.968c0-.264.08-.487.238-.668.164-.182.404-.273.72-.273.317 0 .557.091.721.273a.96.96 0 01.246.668.929.929 0 01-.246.659c-.164.176-.404.264-.72.264-.317 0-.557-.088-.721-.264a.949.949 0 01-.238-.66zM6.146 4.49l.052 1.196c.727-.915 1.676-1.372 2.848-1.372 2.01 0 3.023 1.134 3.04 3.402V14h-1.625V7.707c-.006-.686-.164-1.192-.475-1.52-.304-.329-.782-.493-1.432-.493-.528 0-.99.141-1.389.422-.398.281-.709.65-.932 1.108V14H4.607V4.49h1.539zm13.93 6.987c0-.439-.167-.779-.5-1.019-.329-.246-.906-.457-1.732-.633-.82-.176-1.474-.387-1.96-.633-.48-.246-.838-.539-1.072-.879-.229-.34-.343-.744-.343-1.212 0-.78.328-1.439.984-1.978.662-.539 1.506-.809 2.531-.809 1.078 0 1.951.279 2.62.835.673.557 1.01 1.269 1.01 2.136H19.98c0-.445-.19-.829-.572-1.151-.375-.322-.85-.484-1.424-.484-.591 0-1.054.13-1.388.387a1.217 1.217 0 00-.501 1.01c0 .393.155.69.466.889.31.199.87.39 1.678.57.815.182 1.474.4 1.978.651.504.252.876.557 1.116.914.246.352.37.783.37 1.292 0 .85-.34 1.533-1.02 2.048-.68.51-1.562.765-2.646.765-.762 0-1.435-.135-2.021-.405-.586-.269-1.046-.644-1.38-1.125a2.76 2.76 0 01-.492-1.573h1.626c.029.545.246.979.65 1.301.41.316.95.475 1.617.475.615 0 1.108-.123 1.477-.37.375-.252.562-.585.562-1.002zm5.95-9.29V4.49h1.776v1.257h-1.776v5.898c0 .38.08.668.238.86.158.188.427.282.808.282.188 0 .446-.035.774-.105V14a4.713 4.713 0 01-1.248.176c-.727 0-1.275-.22-1.644-.66-.369-.439-.554-1.063-.554-1.871V5.747h-1.73V4.49h1.73V2.187h1.626zM35.58 14c-.094-.188-.17-.521-.228-1.002-.756.785-1.659 1.178-2.707 1.178-.938 0-1.709-.264-2.312-.791-.598-.533-.896-1.207-.896-2.022 0-.99.374-1.758 1.124-2.302.756-.551 1.817-.827 3.182-.827h1.582v-.747c0-.568-.17-1.02-.51-1.353-.34-.34-.84-.51-1.502-.51-.58 0-1.067.147-1.46.44-.392.292-.588.647-.588 1.063H29.63c0-.475.167-.932.5-1.371.34-.445.798-.797 1.372-1.055a4.643 4.643 0 011.907-.387c1.096 0 1.954.276 2.575.827.621.545.944 1.297.967 2.258v4.377c0 .873.111 1.568.334 2.083V14H35.58zm-2.698-1.24c.51 0 .993-.131 1.45-.395.457-.263.788-.606.993-1.028V9.386h-1.274c-1.992 0-2.989.583-2.989 1.749 0 .51.17.908.51 1.195.34.287.777.43 1.31.43zM47.55 9.35c0 1.454-.334 2.623-1.002 3.507-.668.88-1.565 1.319-2.69 1.319-1.2 0-2.13-.425-2.786-1.275L40.994 14H39.5V.5h1.626v5.036c.656-.814 1.562-1.222 2.716-1.222 1.154 0 2.06.437 2.716 1.31.662.873.993 2.068.993 3.586v.14zm-1.626-.184c0-1.107-.214-1.963-.642-2.566-.428-.604-1.043-.906-1.846-.906-1.072 0-1.842.498-2.311 1.494v4.114c.498.996 1.274 1.494 2.33 1.494.778 0 1.385-.302 1.818-.905.434-.604.65-1.512.65-2.725zm3.252-.009c0-.931.181-1.77.545-2.513.369-.745.879-1.319 1.529-1.723.656-.404 1.403-.607 2.241-.607 1.295 0 2.341.449 3.138 1.345.803.897 1.204 2.09 1.204 3.577v.115c0 .925-.179 1.757-.536 2.496a4.004 4.004 0 01-1.52 1.713c-.657.41-1.413.616-2.268.616-1.29 0-2.335-.449-3.138-1.345-.797-.896-1.195-2.083-1.195-3.56v-.114zm1.635.194c0 1.054.243 1.901.729 2.54.492.638 1.149.958 1.969.958.826 0 1.482-.323 1.968-.967.487-.65.73-1.559.73-2.725 0-1.043-.249-1.886-.747-2.531-.492-.65-1.148-.976-1.969-.976-.802 0-1.45.32-1.942.958-.492.64-.738 1.553-.738 2.743zm11.267-7.164V4.49h1.776v1.257h-1.776v5.898c0 .38.08.668.237.86.159.188.428.282.809.282.188 0 .445-.035.773-.105V14a4.713 4.713 0 01-1.248.176c-.726 0-1.274-.22-1.643-.66-.37-.439-.554-1.063-.554-1.871V5.747h-1.731V4.49h1.731V2.187h1.626zm9.22 9.29c0-.439-.167-.779-.501-1.019-.328-.246-.905-.457-1.732-.633-.82-.176-1.473-.387-1.96-.633-.48-.246-.837-.539-1.072-.879-.228-.34-.343-.744-.343-1.212 0-.78.328-1.439.985-1.978.662-.539 1.506-.809 2.531-.809 1.078 0 1.951.279 2.62.835.673.557 1.01 1.269 1.01 2.136h-1.635c0-.445-.19-.829-.571-1.151-.375-.322-.85-.484-1.424-.484-.592 0-1.055.13-1.389.387a1.217 1.217 0 00-.5 1.01c0 .393.155.69.465.889.31.199.87.39 1.679.57.814.182 1.474.4 1.977.651.504.252.876.557 1.117.914.246.352.369.783.369 1.292 0 .85-.34 1.533-1.02 2.048-.68.51-1.561.765-2.645.765-.762 0-1.436-.135-2.022-.405-.586-.269-1.046-.644-1.38-1.125a2.76 2.76 0 01-.492-1.573h1.626c.03.545.246.979.65 1.301.41.316.95.475 1.618.475.615 0 1.107-.123 1.476-.37.375-.252.563-.585.563-1.002z" fill="#fff"/></svg>