<svg viewBox="0 0 24 32" xmlns="http://www.w3.org/2000/svg" xmlns:xlink="http://www.w3.org/1999/xlink"><style>:root&gt;svg{display:none}:root&gt;svg:target{display:block}</style><svg fill="none" viewBox="0 0 24 24" id="burger" xmlns="http://www.w3.org/2000/svg"><path stroke="#4754EB" stroke-width="2" stroke-linecap="round" d="M5 6h14M5 12h10M5 18h10"/></svg><svg fill="none" viewBox="0 0 24 24" id="burger--active" xmlns="http://www.w3.org/2000/svg"><path fill-rule="evenodd" clip-rule="evenodd" d="M5.121 18.85a1 1 0 010-1.415L17.85 4.707a1 1 0 111.414 1.414L6.535 18.85a1 1 0 01-1.414 0z" fill="#4754EB"/><path fill-rule="evenodd" clip-rule="evenodd" d="M4.707 4.85a1 1 0 011.414 0L18.85 17.576a1 1 0 01-1.414 1.414L4.707 6.263a1 1 0 010-1.414z" fill="#4754EB"/></svg><svg fill="none" viewBox="0 0 14 11" id="checkmark" xmlns="http://www.w3.org/2000/svg"><path d="M1 5l4 4 8-8" stroke="#4754EB" stroke-width="2" stroke-linecap="round"/></svg><svg fill="none" viewBox="0 0 12 12" id="no" xmlns="http://www.w3.org/2000/svg"><path d="M1 11L11 1m0 10L1 1" stroke="#EB4763" stroke-width="2" stroke-linecap="round"/></svg><svg fill="none" viewBox="0 0 16 18" id="profile" xmlns="http://www.w3.org/2000/svg"><path d="M8 10a8.003 8.003 0 00-7.753 6.02C-.026 17.09.895 18 2 18h12c1.105 0 2.026-.91 1.753-1.98A8.003 8.003 0 008 10z" fill="#fff"/><circle cx="8" cy="4" r="4" fill="#fff"/></svg><svg fill="none" viewBox="0 0 24 32" id="swipe" xmlns="http://www.w3.org/2000/svg"><rect x="1" y="1" width="22" height="30" rx="11" stroke="#fff" stroke-width="2"/><path d="M12 13V7" stroke="#fff" stroke-width="2" stroke-linecap="round"/></svg><svg viewBox="0 0 16 18" id="up" xmlns="http://www.w3.org/2000/svg"><path d="M7 17a1 1 0 102 0H7zM8.707.293a1 1 0 00-1.414 0L.929 6.657A1 1 0 002.343 8.07L8 2.414l5.657 5.657a1 1 0 101.414-1.414L8.707.293zM9 17V1H7v16h2z"/></svg></svg>