<svg width="73" height="15" viewBox="0 0 73 15" fill="none" xmlns="http://www.w3.org/2000/svg">
<path d="M1.99707 14H0.371094V4.49023H1.99707V14ZM0.239258 1.96777C0.239258 1.7041 0.318359 1.48145 0.476562 1.2998C0.640625 1.11816 0.880859 1.02734 1.19727 1.02734C1.51367 1.02734 1.75391 1.11816 1.91797 1.2998C2.08203 1.48145 2.16406 1.7041 2.16406 1.96777C2.16406 2.23145 2.08203 2.45117 1.91797 2.62695C1.75391 2.80273 1.51367 2.89062 1.19727 2.89062C0.880859 2.89062 0.640625 2.80273 0.476562 2.62695C0.318359 2.45117 0.239258 2.23145 0.239258 1.96777ZM6.14551 4.49023L6.19824 5.68555C6.9248 4.77148 7.87402 4.31445 9.0459 4.31445C11.0557 4.31445 12.0693 5.44824 12.0869 7.71582V14H10.4609V7.70703C10.4551 7.02148 10.2969 6.51465 9.98633 6.18652C9.68164 5.8584 9.2041 5.69434 8.55371 5.69434C8.02637 5.69434 7.56348 5.83496 7.16504 6.11621C6.7666 6.39746 6.45605 6.7666 6.2334 7.22363V14H4.60742V4.49023H6.14551ZM20.0762 11.4775C20.0762 11.0381 19.9092 10.6982 19.5752 10.458C19.2471 10.2119 18.6699 10.001 17.8438 9.8252C17.0234 9.64941 16.3701 9.43848 15.8838 9.19238C15.4033 8.94629 15.0459 8.65332 14.8115 8.31348C14.583 7.97363 14.4688 7.56934 14.4688 7.10059C14.4688 6.32129 14.7969 5.66211 15.4531 5.12305C16.1152 4.58398 16.959 4.31445 17.9844 4.31445C19.0625 4.31445 19.9355 4.59277 20.6035 5.14941C21.2773 5.70605 21.6143 6.41797 21.6143 7.28516H19.9795C19.9795 6.83984 19.7891 6.45605 19.4082 6.13379C19.0332 5.81152 18.5586 5.65039 17.9844 5.65039C17.3926 5.65039 16.9297 5.7793 16.5957 6.03711C16.2617 6.29492 16.0947 6.63184 16.0947 7.04785C16.0947 7.44043 16.25 7.73633 16.5605 7.93555C16.8711 8.13477 17.4307 8.3252 18.2393 8.50684C19.0537 8.68848 19.7129 8.90527 20.2168 9.15723C20.7207 9.40918 21.0928 9.71387 21.333 10.0713C21.5791 10.4229 21.7021 10.8535 21.7021 11.3633C21.7021 12.2129 21.3623 12.8955 20.6826 13.4111C20.0029 13.9209 19.1211 14.1758 18.0371 14.1758C17.2754 14.1758 16.6016 14.041 16.0156 13.7715C15.4297 13.502 14.9697 13.127 14.6357 12.6465C14.3076 12.1602 14.1436 11.6357 14.1436 11.0732H15.7695C15.7988 11.6182 16.0156 12.0518 16.4199 12.374C16.8301 12.6904 17.3691 12.8486 18.0371 12.8486C18.6523 12.8486 19.1445 12.7256 19.5137 12.4795C19.8887 12.2275 20.0762 11.8936 20.0762 11.4775ZM26.0264 2.1875V4.49023H27.8018V5.74707H26.0264V11.6445C26.0264 12.0254 26.1055 12.3125 26.2637 12.5059C26.4219 12.6934 26.6914 12.7871 27.0723 12.7871C27.2598 12.7871 27.5176 12.752 27.8457 12.6816V14C27.418 14.1172 27.002 14.1758 26.5977 14.1758C25.8711 14.1758 25.3232 13.9561 24.9541 13.5166C24.585 13.0771 24.4004 12.4531 24.4004 11.6445V5.74707H22.6689V4.49023H24.4004V2.1875H26.0264ZM35.5801 14C35.4863 13.8125 35.4102 13.4785 35.3516 12.998C34.5957 13.7832 33.6934 14.1758 32.6445 14.1758C31.707 14.1758 30.9365 13.9121 30.333 13.3848C29.7354 12.8516 29.4365 12.1777 29.4365 11.3633C29.4365 10.373 29.8115 9.60547 30.5615 9.06055C31.3174 8.50977 32.3779 8.23438 33.7432 8.23438H35.3252V7.4873C35.3252 6.91895 35.1553 6.46777 34.8154 6.13379C34.4756 5.79395 33.9746 5.62402 33.3125 5.62402C32.7324 5.62402 32.2461 5.77051 31.8535 6.06348C31.4609 6.35645 31.2646 6.71094 31.2646 7.12695H29.6299C29.6299 6.65234 29.7969 6.19531 30.1309 5.75586C30.4707 5.31055 30.9277 4.95898 31.502 4.70117C32.082 4.44336 32.7178 4.31445 33.4092 4.31445C34.5049 4.31445 35.3633 4.58984 35.9844 5.14062C36.6055 5.68555 36.9277 6.43848 36.9512 7.39941V11.7764C36.9512 12.6494 37.0625 13.3438 37.2852 13.8594V14H35.5801ZM32.8818 12.7607C33.3916 12.7607 33.875 12.6289 34.332 12.3652C34.7891 12.1016 35.1201 11.7588 35.3252 11.3369V9.38574H34.0508C32.0586 9.38574 31.0625 9.96875 31.0625 11.1348C31.0625 11.6445 31.2324 12.043 31.5723 12.3301C31.9121 12.6172 32.3486 12.7607 32.8818 12.7607ZM47.5508 9.35059C47.5508 10.8037 47.2168 11.9727 46.5488 12.8574C45.8809 13.7363 44.9844 14.1758 43.8594 14.1758C42.6582 14.1758 41.7295 13.751 41.0732 12.9014L40.9941 14H39.5V0.5H41.126V5.53613C41.7822 4.72168 42.6875 4.31445 43.8418 4.31445C44.9961 4.31445 45.9014 4.75098 46.5576 5.62402C47.2197 6.49707 47.5508 7.69238 47.5508 9.20996V9.35059ZM45.9248 9.16602C45.9248 8.05859 45.7109 7.20312 45.2832 6.59961C44.8555 5.99609 44.2402 5.69434 43.4375 5.69434C42.3652 5.69434 41.5947 6.19238 41.126 7.18848V11.3018C41.624 12.2979 42.4004 12.7959 43.4551 12.7959C44.2344 12.7959 44.8408 12.4941 45.2744 11.8906C45.708 11.2871 45.9248 10.3789 45.9248 9.16602ZM49.1768 9.15723C49.1768 8.22559 49.3584 7.3877 49.7217 6.64355C50.0908 5.89941 50.6006 5.3252 51.251 4.9209C51.9072 4.5166 52.6543 4.31445 53.4922 4.31445C54.7871 4.31445 55.833 4.7627 56.6299 5.65918C57.4326 6.55566 57.834 7.74805 57.834 9.23633V9.35059C57.834 10.2764 57.6553 11.1084 57.2979 11.8467C56.9463 12.5791 56.4395 13.1504 55.7773 13.5605C55.1211 13.9707 54.3652 14.1758 53.5098 14.1758C52.2207 14.1758 51.1748 13.7275 50.3721 12.8311C49.5752 11.9346 49.1768 10.748 49.1768 9.27148V9.15723ZM50.8115 9.35059C50.8115 10.4053 51.0547 11.252 51.541 11.8906C52.0332 12.5293 52.6895 12.8486 53.5098 12.8486C54.3359 12.8486 54.9922 12.5264 55.4785 11.8818C55.9648 11.2314 56.208 10.3232 56.208 9.15723C56.208 8.11426 55.959 7.27051 55.4609 6.62598C54.9688 5.97559 54.3125 5.65039 53.4922 5.65039C52.6895 5.65039 52.042 5.96973 51.5498 6.6084C51.0576 7.24707 50.8115 8.16113 50.8115 9.35059ZM62.0791 2.1875V4.49023H63.8545V5.74707H62.0791V11.6445C62.0791 12.0254 62.1582 12.3125 62.3164 12.5059C62.4746 12.6934 62.7441 12.7871 63.125 12.7871C63.3125 12.7871 63.5703 12.752 63.8984 12.6816V14C63.4707 14.1172 63.0547 14.1758 62.6504 14.1758C61.9238 14.1758 61.376 13.9561 61.0068 13.5166C60.6377 13.0771 60.4531 12.4531 60.4531 11.6445V5.74707H58.7217V4.49023H60.4531V2.1875H62.0791ZM71.2988 11.4775C71.2988 11.0381 71.1318 10.6982 70.7979 10.458C70.4697 10.2119 69.8926 10.001 69.0664 9.8252C68.2461 9.64941 67.5928 9.43848 67.1064 9.19238C66.626 8.94629 66.2686 8.65332 66.0342 8.31348C65.8057 7.97363 65.6914 7.56934 65.6914 7.10059C65.6914 6.32129 66.0195 5.66211 66.6758 5.12305C67.3379 4.58398 68.1816 4.31445 69.207 4.31445C70.2852 4.31445 71.1582 4.59277 71.8262 5.14941C72.5 5.70605 72.8369 6.41797 72.8369 7.28516H71.2021C71.2021 6.83984 71.0117 6.45605 70.6309 6.13379C70.2559 5.81152 69.7812 5.65039 69.207 5.65039C68.6152 5.65039 68.1523 5.7793 67.8184 6.03711C67.4844 6.29492 67.3174 6.63184 67.3174 7.04785C67.3174 7.44043 67.4727 7.73633 67.7832 7.93555C68.0938 8.13477 68.6533 8.3252 69.4619 8.50684C70.2764 8.68848 70.9355 8.90527 71.4395 9.15723C71.9434 9.40918 72.3154 9.71387 72.5557 10.0713C72.8018 10.4229 72.9248 10.8535 72.9248 11.3633C72.9248 12.2129 72.585 12.8955 71.9053 13.4111C71.2256 13.9209 70.3438 14.1758 69.2598 14.1758C68.498 14.1758 67.8242 14.041 67.2383 13.7715C66.6523 13.502 66.1924 13.127 65.8584 12.6465C65.5303 12.1602 65.3662 11.6357 65.3662 11.0732H66.9922C67.0215 11.6182 67.2383 12.0518 67.6426 12.374C68.0527 12.6904 68.5918 12.8486 69.2598 12.8486C69.875 12.8486 70.3672 12.7256 70.7363 12.4795C71.1113 12.2275 71.2988 11.8936 71.2988 11.4775Z" fill="white"/>
</svg>
