<svg width="94" height="14" viewBox="0 0 94 14" fill="none" xmlns="http://www.w3.org/2000/svg">
<path d="M2.64746 13H0.432617V0.203125H2.64746V13ZM15.5322 13H13.3086L7.60449 3.9209V13H5.38086V0.203125H7.60449L13.3262 9.31738V0.203125H15.5322V13ZM24.8486 9.7041C24.8486 9.1416 24.6494 8.70801 24.251 8.40332C23.8584 8.09863 23.1465 7.79102 22.1152 7.48047C21.084 7.16992 20.2637 6.82422 19.6543 6.44336C18.4883 5.71094 17.9053 4.75586 17.9053 3.57812C17.9053 2.54688 18.3242 1.69727 19.1621 1.0293C20.0059 0.361328 21.0986 0.0273438 22.4404 0.0273438C23.3311 0.0273438 24.125 0.191406 24.8223 0.519531C25.5195 0.847656 26.0674 1.31641 26.4658 1.92578C26.8643 2.5293 27.0635 3.2002 27.0635 3.93848H24.8486C24.8486 3.27051 24.6377 2.74902 24.2158 2.37402C23.7998 1.99316 23.2021 1.80273 22.4229 1.80273C21.6963 1.80273 21.1309 1.95801 20.7266 2.26855C20.3281 2.5791 20.1289 3.0127 20.1289 3.56934C20.1289 4.03809 20.3457 4.43066 20.7793 4.74707C21.2129 5.05762 21.9277 5.3623 22.9238 5.66113C23.9199 5.9541 24.7197 6.29102 25.3232 6.67188C25.9268 7.04688 26.3691 7.48047 26.6504 7.97266C26.9316 8.45898 27.0723 9.03027 27.0723 9.68652C27.0723 10.7529 26.6621 11.6025 25.8418 12.2354C25.0273 12.8623 23.9199 13.1758 22.5195 13.1758C21.5938 13.1758 20.7412 13.0059 19.9619 12.666C19.1885 12.3203 18.585 11.8457 18.1514 11.2422C17.7236 10.6387 17.5098 9.93555 17.5098 9.13281H19.7334C19.7334 9.85938 19.9736 10.4219 20.4541 10.8203C20.9346 11.2188 21.623 11.418 22.5195 11.418C23.293 11.418 23.873 11.2627 24.2598 10.9521C24.6523 10.6357 24.8486 10.2197 24.8486 9.7041ZM38.2695 1.99609H34.2793V13H32.0732V1.99609H28.1182V0.203125H38.2695V1.99609ZM46.0654 10.0205H41.1084L40.0713 13H37.7598L42.5938 0.203125H44.5889L49.4316 13H47.1113L46.0654 10.0205ZM41.7324 8.22754H45.4414L43.5869 2.91895L41.7324 8.22754ZM50.8906 13V0.203125H55.2764C56.7236 0.203125 57.8252 0.493164 58.5811 1.07324C59.3369 1.65332 59.7148 2.51758 59.7148 3.66602C59.7148 4.25195 59.5566 4.7793 59.2402 5.24805C58.9238 5.7168 58.4609 6.08008 57.8516 6.33789C58.543 6.52539 59.0762 6.87988 59.4512 7.40137C59.832 7.91699 60.0225 8.53809 60.0225 9.26465C60.0225 10.4658 59.6357 11.3887 58.8623 12.0332C58.0947 12.6777 56.9932 13 55.5576 13H50.8906ZM53.1143 7.22559V11.2246H55.584C56.2812 11.2246 56.8262 11.0518 57.2188 10.7061C57.6113 10.3604 57.8076 9.87988 57.8076 9.26465C57.8076 7.93457 57.1279 7.25488 55.7686 7.22559H53.1143ZM53.1143 5.59082H55.2939C55.9854 5.59082 56.5244 5.43555 56.9111 5.125C57.3037 4.80859 57.5 4.36328 57.5 3.78906C57.5 3.15625 57.3184 2.69922 56.9551 2.41797C56.5977 2.13672 56.0381 1.99609 55.2764 1.99609H53.1143V5.59082ZM72.459 6.93555C72.459 8.18945 72.2422 9.29102 71.8086 10.2402C71.375 11.1836 70.7539 11.9102 69.9453 12.4199C69.1426 12.9238 68.2168 13.1758 67.168 13.1758C66.1309 13.1758 65.2051 12.9238 64.3906 12.4199C63.582 11.9102 62.9551 11.1865 62.5098 10.249C62.0703 9.31152 61.8477 8.23047 61.8418 7.00586V6.28516C61.8418 5.03711 62.0615 3.93555 62.501 2.98047C62.9463 2.02539 63.5703 1.2959 64.373 0.791992C65.1816 0.282227 66.1074 0.0273438 67.1504 0.0273438C68.1934 0.0273438 69.1162 0.279297 69.9189 0.783203C70.7275 1.28125 71.3516 2.00195 71.791 2.94531C72.2305 3.88281 72.4531 4.97559 72.459 6.22363V6.93555ZM70.2354 6.26758C70.2354 4.84961 69.9658 3.7627 69.4268 3.00684C68.8936 2.25098 68.1348 1.87305 67.1504 1.87305C66.1895 1.87305 65.4365 2.25098 64.8916 3.00684C64.3525 3.75684 64.0771 4.82031 64.0654 6.19727V6.93555C64.0654 8.3418 64.3379 9.42871 64.8828 10.1963C65.4336 10.9639 66.1953 11.3477 67.168 11.3477C68.1523 11.3477 68.9082 10.9727 69.4355 10.2227C69.9688 9.47266 70.2354 8.37695 70.2354 6.93555V6.26758ZM83.1641 1.99609H79.1738V13H76.9678V1.99609H73.0127V0.203125H83.1641V1.99609ZM91.3994 9.7041C91.3994 9.1416 91.2002 8.70801 90.8018 8.40332C90.4092 8.09863 89.6973 7.79102 88.666 7.48047C87.6348 7.16992 86.8145 6.82422 86.2051 6.44336C85.0391 5.71094 84.4561 4.75586 84.4561 3.57812C84.4561 2.54688 84.875 1.69727 85.7129 1.0293C86.5566 0.361328 87.6494 0.0273438 88.9912 0.0273438C89.8818 0.0273438 90.6758 0.191406 91.373 0.519531C92.0703 0.847656 92.6182 1.31641 93.0166 1.92578C93.415 2.5293 93.6143 3.2002 93.6143 3.93848H91.3994C91.3994 3.27051 91.1885 2.74902 90.7666 2.37402C90.3506 1.99316 89.7529 1.80273 88.9736 1.80273C88.2471 1.80273 87.6816 1.95801 87.2773 2.26855C86.8789 2.5791 86.6797 3.0127 86.6797 3.56934C86.6797 4.03809 86.8965 4.43066 87.3301 4.74707C87.7637 5.05762 88.4785 5.3623 89.4746 5.66113C90.4707 5.9541 91.2705 6.29102 91.874 6.67188C92.4775 7.04688 92.9199 7.48047 93.2012 7.97266C93.4824 8.45898 93.623 9.03027 93.623 9.68652C93.623 10.7529 93.2129 11.6025 92.3926 12.2354C91.5781 12.8623 90.4707 13.1758 89.0703 13.1758C88.1445 13.1758 87.292 13.0059 86.5127 12.666C85.7393 12.3203 85.1357 11.8457 84.7021 11.2422C84.2744 10.6387 84.0605 9.93555 84.0605 9.13281H86.2842C86.2842 9.85938 86.5244 10.4219 87.0049 10.8203C87.4854 11.2188 88.1738 11.418 89.0703 11.418C89.8438 11.418 90.4238 11.2627 90.8105 10.9521C91.2031 10.6357 91.3994 10.2197 91.3994 9.7041Z" fill="#4754EB"/>
</svg>
